<svg width="41" height="40" viewBox="0 0 41 40" fill="none" xmlns="http://www.w3.org/2000/svg">
<path fill-rule="evenodd" clip-rule="evenodd" d="M19.6665 32.7706C19.224 32.7707 18.7997 32.9303 18.4868 33.2144C18.1739 33.4986 17.9981 33.8839 17.998 34.2857C17.9981 34.6875 18.1739 35.0728 18.4868 35.357C18.7997 35.6411 19.224 35.8007 19.6665 35.8008C20.109 35.8007 20.5334 35.6411 20.8463 35.357C21.1592 35.0728 21.335 34.6875 21.335 34.2857C21.335 33.8839 21.1592 33.4986 20.8463 33.2144C20.5334 32.9303 20.109 32.7707 19.6665 32.7706Z" fill="url(#paint0_linear_3329_34904)"/>
<path fill-rule="evenodd" clip-rule="evenodd" d="M28.9689 29.2299C28.568 29.2549 28.1905 29.4104 27.9057 29.668C27.5928 29.9521 27.417 30.3375 27.417 30.7394C27.417 31.1412 27.5928 31.5266 27.9057 31.8108C28.2187 32.095 28.6431 32.2546 29.0857 32.2546C29.5282 32.2546 29.9527 32.095 30.2656 31.8108C30.5785 31.5266 30.7543 31.1412 30.7543 30.7394C30.7543 30.3375 30.5785 29.9521 30.2656 29.668C30.0965 29.515 29.8933 29.3967 29.6696 29.3211C29.4459 29.2456 29.207 29.2145 28.9689 29.2299Z" fill="url(#paint1_linear_3329_34904)"/>
<path fill-rule="evenodd" clip-rule="evenodd" d="M10.124 29.2299C9.7242 29.2555 9.34789 29.411 9.06394 29.6679C8.751 29.9521 8.5752 30.3375 8.5752 30.7394C8.5752 31.1412 8.751 31.5266 9.06394 31.8108C9.37688 32.095 9.80131 32.2546 10.2439 32.2546C10.6864 32.2546 11.1109 32.095 11.4238 31.8108C11.7367 31.5266 11.9125 31.1412 11.9125 30.7394C11.9125 30.3375 11.7367 29.9521 11.4238 29.6679C11.2544 29.5146 11.0506 29.3961 10.8264 29.3205C10.6021 29.2449 10.3626 29.214 10.124 29.2299Z" fill="url(#paint2_linear_3329_34904)"/>
<path fill-rule="evenodd" clip-rule="evenodd" d="M32.9898 20.6696C32.5473 20.6697 32.1229 20.8293 31.81 21.1135C31.4971 21.3976 31.3213 21.7829 31.3213 22.1847C31.3213 22.5865 31.4971 22.9718 31.81 23.256C32.1229 23.5401 32.5473 23.6997 32.9898 23.6998C33.2091 23.7001 33.4264 23.6612 33.6292 23.5852C33.832 23.5092 34.0163 23.3977 34.1715 23.257C34.3268 23.1163 34.45 22.9491 34.534 22.7651C34.6181 22.5811 34.6613 22.3839 34.6614 22.1847C34.6613 21.9855 34.6181 21.7883 34.534 21.6043C34.45 21.4203 34.3268 21.2532 34.1715 21.1125C34.0163 20.9717 33.832 20.8602 33.6292 20.7842C33.4264 20.7082 33.2091 20.6693 32.9898 20.6696Z" fill="url(#paint3_linear_3329_34904)"/>
<path fill-rule="evenodd" clip-rule="evenodd" d="M6.34052 20.6696C6.12115 20.6693 5.90387 20.7082 5.70109 20.7842C5.49832 20.8602 5.31403 20.9717 5.15877 21.1125C5.00352 21.2532 4.88034 21.4203 4.79629 21.6043C4.71224 21.7883 4.66897 21.9855 4.66895 22.1847C4.66897 22.3839 4.71224 22.5811 4.79629 22.7651C4.88034 22.9491 5.00352 23.1163 5.15877 23.257C5.31403 23.3977 5.49832 23.5092 5.70109 23.5852C5.90387 23.6612 6.12115 23.7001 6.34052 23.6998C6.78301 23.6997 7.20738 23.5401 7.52027 23.256C7.83316 22.9718 8.00897 22.5865 8.00901 22.1847C8.00897 21.7829 7.83316 21.3976 7.52027 21.1135C7.20738 20.8293 6.78301 20.6697 6.34052 20.6696Z" fill="url(#paint4_linear_3329_34904)"/>
<path fill-rule="evenodd" clip-rule="evenodd" d="M19.6658 14.2857C19.2485 14.2857 18.8484 14.4362 18.5533 14.7041C18.2583 14.972 18.0925 15.3354 18.0925 15.7143V22.2628L13.8337 26.1328C13.5388 26.4007 13.373 26.764 13.373 27.1428C13.373 27.5217 13.5388 27.885 13.8337 28.1529C14.1287 28.4207 14.5289 28.5712 14.946 28.5712C15.3632 28.5712 15.7634 28.4207 16.0584 28.1529L20.7781 23.8672C21.0731 23.5993 21.2389 23.236 21.239 22.8571V15.7143C21.239 15.3354 21.0733 14.972 20.7782 14.7041C20.4832 14.4362 20.083 14.2857 19.6658 14.2857Z" fill="#EC5851"/>
<path fill-rule="evenodd" clip-rule="evenodd" d="M28.9689 12.1177C28.5676 12.1435 28.19 12.3 27.9057 12.5586C27.5928 12.8427 27.417 13.2281 27.417 13.63C27.417 14.0319 27.5928 14.4173 27.9057 14.7014C28.2187 14.9856 28.6431 15.1452 29.0857 15.1452C29.5282 15.1452 29.9527 14.9856 30.2656 14.7014C30.5785 14.4173 30.7543 14.0319 30.7543 13.63C30.7543 13.2281 30.5785 12.8427 30.2656 12.5586C30.0968 12.4051 29.8937 12.2863 29.67 12.2103C29.4463 12.1342 29.2072 12.1026 28.9689 12.1177Z" fill="url(#paint5_linear_3329_34904)"/>
<path fill-rule="evenodd" clip-rule="evenodd" d="M10.124 12.1177C9.72378 12.1442 9.34743 12.3007 9.06394 12.5586C8.751 12.8427 8.5752 13.2282 8.5752 13.63C8.5752 14.0319 8.751 14.4173 9.06394 14.7014C9.37688 14.9856 9.80131 15.1453 10.2439 15.1453C10.6864 15.1453 11.1109 14.9856 11.4238 14.7014C11.7367 14.4173 11.9125 14.0319 11.9125 13.63C11.9125 13.2282 11.7367 12.8427 11.4238 12.5586C11.2547 12.4047 11.051 12.2858 10.8268 12.2097C10.6025 12.1336 10.3628 12.1023 10.124 12.1177Z" fill="url(#paint6_linear_3329_34904)"/>
<path fill-rule="evenodd" clip-rule="evenodd" d="M19.6665 8.57144C19.224 8.57148 18.7997 8.73113 18.4868 9.01525C18.1739 9.29938 17.9981 9.6847 17.998 10.0865C17.9981 10.4883 18.1739 10.8736 18.4868 11.1578C18.7997 11.4419 19.224 11.6015 19.6665 11.6016C20.109 11.6015 20.5334 11.4419 20.8463 11.1578C21.1592 10.8736 21.335 10.4883 21.335 10.0865C21.335 9.6847 21.1592 9.29938 20.8463 9.01525C20.5334 8.73113 20.109 8.57148 19.6665 8.57144Z" fill="url(#paint7_linear_3329_34904)"/>
<path fill-rule="evenodd" clip-rule="evenodd" d="M16.519 0C16.1018 0 15.7016 0.150487 15.4066 0.418396C15.1116 0.686305 14.9458 1.04969 14.9458 1.42857C14.9458 1.80745 15.1116 2.17079 15.4066 2.4387C15.7016 2.70661 16.1018 2.85714 16.519 2.85714H18.0923V4.3471C7.98344 5.07828 0 12.779 0 22.1429C0 31.9881 8.82321 40 19.6655 40C30.5078 40 39.3311 31.9881 39.3311 22.1429C39.3311 18.5776 38.1694 15.2547 36.1784 12.4637C36.2401 12.4248 36.2986 12.3819 36.3536 12.3354L39.6906 9.30529C39.9855 9.03737 40.1512 8.67406 40.1512 8.29524C40.1512 7.91643 39.9855 7.55312 39.6906 7.2852L35.2412 3.24502C34.9462 2.97721 34.5461 2.8268 34.1289 2.8268C33.7117 2.8268 33.3116 2.97721 33.0166 3.24502L29.6796 6.27516C29.5662 6.38212 29.4719 6.50449 29.4 6.63784C26.9575 5.36838 24.1892 4.56051 21.2388 4.3471V2.85714H22.812C23.2293 2.85714 23.6294 2.70661 23.9245 2.4387C24.2195 2.17079 24.3853 1.80745 24.3853 1.42857C24.3853 1.04969 24.2195 0.686305 23.9245 0.418396C23.6294 0.150487 23.2293 0 22.812 0H16.519ZM34.1289 6.27511L36.3536 8.2952L35.2412 9.30525L33.0166 7.28516L34.1289 6.27511ZM19.6655 7.14286C28.8074 7.14286 36.1846 13.8417 36.1846 22.1429C36.1846 30.444 28.8074 37.1429 19.6655 37.1429C10.5237 37.1429 3.14648 30.444 3.14648 22.1429C3.14648 13.8417 10.5237 7.14286 19.6655 7.14286Z" fill="url(#paint8_linear_3329_34904)"/>
<defs>
<linearGradient id="paint0_linear_3329_34904" x1="17.998" y1="33.0687" x2="21.522" y2="33.2279" gradientUnits="userSpaceOnUse">
<stop stop-color="#5FD8FF"/>
<stop offset="0.644117" stop-color="#9969FF"/>
<stop offset="1" stop-color="#704FE5"/>
</linearGradient>
<linearGradient id="paint1_linear_3329_34904" x1="27.417" y1="29.5239" x2="30.9413" y2="29.6832" gradientUnits="userSpaceOnUse">
<stop stop-color="#5FD8FF"/>
<stop offset="0.644117" stop-color="#9969FF"/>
<stop offset="1" stop-color="#704FE5"/>
</linearGradient>
<linearGradient id="paint2_linear_3329_34904" x1="8.5752" y1="29.5238" x2="12.0995" y2="29.6831" gradientUnits="userSpaceOnUse">
<stop stop-color="#5FD8FF"/>
<stop offset="0.644117" stop-color="#9969FF"/>
<stop offset="1" stop-color="#704FE5"/>
</linearGradient>
<linearGradient id="paint3_linear_3329_34904" x1="31.3213" y1="20.9677" x2="34.8485" y2="21.1272" gradientUnits="userSpaceOnUse">
<stop stop-color="#5FD8FF"/>
<stop offset="0.644117" stop-color="#9969FF"/>
<stop offset="1" stop-color="#704FE5"/>
</linearGradient>
<linearGradient id="paint4_linear_3329_34904" x1="4.66895" y1="20.9677" x2="8.19615" y2="21.1272" gradientUnits="userSpaceOnUse">
<stop stop-color="#5FD8FF"/>
<stop offset="0.644117" stop-color="#9969FF"/>
<stop offset="1" stop-color="#704FE5"/>
</linearGradient>
<linearGradient id="paint5_linear_3329_34904" x1="27.417" y1="12.4122" x2="30.9414" y2="12.5714" gradientUnits="userSpaceOnUse">
<stop stop-color="#5FD8FF"/>
<stop offset="0.644117" stop-color="#9969FF"/>
<stop offset="1" stop-color="#704FE5"/>
</linearGradient>
<linearGradient id="paint6_linear_3329_34904" x1="8.5752" y1="12.4121" x2="12.0996" y2="12.5712" gradientUnits="userSpaceOnUse">
<stop stop-color="#5FD8FF"/>
<stop offset="0.644117" stop-color="#9969FF"/>
<stop offset="1" stop-color="#704FE5"/>
</linearGradient>
<linearGradient id="paint7_linear_3329_34904" x1="17.998" y1="8.86949" x2="21.522" y2="9.02868" gradientUnits="userSpaceOnUse">
<stop stop-color="#5FD8FF"/>
<stop offset="0.644117" stop-color="#9969FF"/>
<stop offset="1" stop-color="#704FE5"/>
</linearGradient>
<linearGradient id="paint8_linear_3329_34904" x1="2.20436e-07" y1="3.93443" x2="42.4156" y2="5.68094" gradientUnits="userSpaceOnUse">
<stop stop-color="#5FD8FF"/>
<stop offset="0.644117" stop-color="#9969FF"/>
<stop offset="1" stop-color="#704FE5"/>
</linearGradient>
</defs>
</svg>
