<svg width="48" height="40" viewBox="0 0 48 40" fill="none" xmlns="http://www.w3.org/2000/svg">
<path fill-rule="evenodd" clip-rule="evenodd" d="M11.1996 25.6C10.7753 25.6 10.3683 25.7686 10.0682 26.0686C9.76818 26.3687 9.59961 26.7757 9.59961 27.2C9.59961 27.6244 9.76818 28.0313 10.0682 28.3314C10.3683 28.6314 10.7753 28.8 11.1996 28.8H23.9996C24.424 28.8 24.8309 28.6314 25.131 28.3314C25.431 28.0313 25.5996 27.6244 25.5996 27.2C25.5996 26.7757 25.431 26.3687 25.131 26.0686C24.8309 25.7686 24.424 25.6 23.9996 25.6H11.1996Z" fill="#EC5851"/>
<path fill-rule="evenodd" clip-rule="evenodd" d="M14.3998 20.8C13.9755 20.8 13.5685 20.9685 13.2684 21.2686C12.9684 21.5687 12.7998 21.9757 12.7998 22.4C12.7998 22.8243 12.9684 23.2313 13.2684 23.5314C13.5685 23.8314 13.9755 24 14.3998 24H23.9998C24.4242 24 24.8311 23.8314 25.1312 23.5314C25.4312 23.2313 25.5998 22.8243 25.5998 22.4C25.5998 21.9757 25.4312 21.5687 25.1312 21.2686C24.8311 20.9685 24.4242 20.8 23.9998 20.8H14.3998Z" fill="#EC5851"/>
<path fill-rule="evenodd" clip-rule="evenodd" d="M19.1996 16C18.7753 16 18.3683 16.1685 18.0682 16.4686C17.7682 16.7687 17.5996 17.1757 17.5996 17.6C17.5996 18.0243 17.7682 18.4313 18.0682 18.7313C18.3683 19.0314 18.7753 19.2 19.1996 19.2H23.9996C24.424 19.2 24.8309 19.0314 25.131 18.7313C25.431 18.4313 25.5996 18.0243 25.5996 17.6C25.5996 17.1757 25.431 16.7687 25.131 16.4686C24.8309 16.1685 24.424 16 23.9996 16H19.1996Z" fill="#EC5851"/>
<path fill-rule="evenodd" clip-rule="evenodd" d="M12.6214 6.40937C12.2608 6.44998 11.9247 6.61196 11.6683 6.86874L8.79956 9.73749L7.53081 8.46874C7.23076 8.16876 6.82385 8.00024 6.39956 8.00024C5.97527 8.00024 5.56836 8.16876 5.26831 8.46874C4.96833 8.76879 4.7998 9.17571 4.7998 9.59999C4.7998 10.0243 4.96833 10.4312 5.26831 10.7312L7.66831 13.1312C7.96838 13.4312 8.37529 13.5997 8.79956 13.5997C9.22383 13.5997 9.63074 13.4312 9.93081 13.1312L13.9308 9.13124C14.2308 8.83119 14.3993 8.42428 14.3993 7.99999C14.3993 7.57571 14.2308 7.16879 13.9308 6.86874C13.761 6.69879 13.5552 6.56926 13.3285 6.48974C13.1018 6.41021 12.8602 6.38273 12.6214 6.40937Z" fill="#EC5851"/>
<path fill-rule="evenodd" clip-rule="evenodd" d="M9.6 0C4.31703 0 0 4.31704 0 9.6C0 12.4288 1.23896 14.9802 3.2 16.7406V35.2C3.20004 35.6243 3.36863 36.0312 3.66868 36.3313C3.96873 36.6313 4.37567 36.8 4.8 36.8H8.27813C8.94323 38.6566 10.7274 40 12.8 40C14.8726 40 16.6568 38.6566 17.3219 36.8H28.8H32.2781C32.9432 38.6566 34.7274 40 36.8 40C38.8726 40 40.6568 38.6566 41.3219 36.8H46.4C46.8243 36.8 47.2313 36.6313 47.5313 36.3313C47.8314 36.0312 48 35.6243 48 35.2V24C48.0003 23.6366 47.8768 23.2839 47.65 23L41.25 15C41.1 14.8126 40.9097 14.6614 40.6934 14.5576C40.477 14.4537 40.24 14.3999 40 14.4H30.4V11.2C30.4 10.7757 30.2314 10.3687 29.9313 10.0687C29.6313 9.7686 29.2243 9.60004 28.8 9.6H19.2C19.2 4.31704 14.883 0 9.6 0ZM9.6 3.2C13.1536 3.2 16 6.04643 16 9.6C16 13.1536 13.1536 16 9.6 16C8.24389 16 6.99063 15.5852 5.95938 14.875C5.83577 14.7444 5.69103 14.6356 5.53125 14.5531C4.10488 13.3826 3.2 11.6036 3.2 9.6C3.2 6.04643 6.04643 3.2 9.6 3.2ZM18.6469 12.8H27.2V33.6H17.3219C16.6568 31.7434 14.8726 30.4 12.8 30.4C10.7274 30.4 8.94323 31.7434 8.27813 33.6H6.4V18.6469C7.40203 19.0036 8.47896 19.2 9.6 19.2C13.7619 19.2 17.3224 16.5201 18.6469 12.8ZM30.4 17.6H33.6V25.6C33.6 26.0243 33.7686 26.4312 34.0687 26.7313C34.3687 27.0313 34.7757 27.2 35.2 27.2H44.8V33.6H41.3219C40.6568 31.7434 38.8726 30.4 36.8 30.4C34.7274 30.4 32.9432 31.7434 32.2781 33.6H30.4V17.6ZM36.8 17.6H39.2313L44.35 24H36.8V17.6ZM12.8 33.6C13.7026 33.6 14.4 34.2974 14.4 35.2C14.4 36.1026 13.7026 36.8 12.8 36.8C11.8974 36.8 11.2 36.1026 11.2 35.2C11.2 34.2974 11.8974 33.6 12.8 33.6ZM36.8 33.6C37.7026 33.6 38.4 34.2974 38.4 35.2C38.4 36.1026 37.7026 36.8 36.8 36.8C35.8974 36.8 35.2 36.1026 35.2 35.2C35.2 34.2974 35.8974 33.6 36.8 33.6Z" fill="url(#paint0_linear_3329_34895)"/>
<defs>
<linearGradient id="paint0_linear_3329_34895" x1="2.63528e-07" y1="3.93443" x2="50.6702" y2="6.42869" gradientUnits="userSpaceOnUse">
<stop stop-color="#5FD8FF"/>
<stop offset="0.644117" stop-color="#9969FF"/>
<stop offset="1" stop-color="#704FE5"/>
</linearGradient>
</defs>
</svg>
