<svg width="16" height="16" viewBox="0 0 16 16" fill="none" xmlns="http://www.w3.org/2000/svg">
<path d="M0 1.125C0 0.826631 0.118526 0.540483 0.329505 0.329505C0.540483 0.118526 0.826631 0 1.125 0H3.375C3.67337 0 3.95952 0.118526 4.1705 0.329505C4.38147 0.540483 4.5 0.826631 4.5 1.125V3.375C4.5 3.67337 4.38147 3.95952 4.1705 4.1705C3.95952 4.38147 3.67337 4.5 3.375 4.5H1.125C0.826631 4.5 0.540483 4.38147 0.329505 4.1705C0.118526 3.95952 0 3.67337 0 3.375V1.125ZM5.625 1.125C5.625 0.826631 5.74353 0.540483 5.9545 0.329505C6.16548 0.118526 6.45163 0 6.75 0H9C9.29837 0 9.58452 0.118526 9.7955 0.329505C10.0065 0.540483 10.125 0.826631 10.125 1.125V3.375C10.125 3.67337 10.0065 3.95952 9.7955 4.1705C9.58452 4.38147 9.29837 4.5 9 4.5H6.75C6.45163 4.5 6.16548 4.38147 5.9545 4.1705C5.74353 3.95952 5.625 3.67337 5.625 3.375V1.125ZM11.25 1.125C11.25 0.826631 11.3685 0.540483 11.5795 0.329505C11.7905 0.118526 12.0766 0 12.375 0H14.625C14.9234 0 15.2095 0.118526 15.4205 0.329505C15.6315 0.540483 15.75 0.826631 15.75 1.125V3.375C15.75 3.67337 15.6315 3.95952 15.4205 4.1705C15.2095 4.38147 14.9234 4.5 14.625 4.5H12.375C12.0766 4.5 11.7905 4.38147 11.5795 4.1705C11.3685 3.95952 11.25 3.67337 11.25 3.375V1.125ZM0 6.75C0 6.45163 0.118526 6.16548 0.329505 5.9545C0.540483 5.74353 0.826631 5.625 1.125 5.625H3.375C3.67337 5.625 3.95952 5.74353 4.1705 5.9545C4.38147 6.16548 4.5 6.45163 4.5 6.75V9C4.5 9.29837 4.38147 9.58452 4.1705 9.7955C3.95952 10.0065 3.67337 10.125 3.375 10.125H1.125C0.826631 10.125 0.540483 10.0065 0.329505 9.7955C0.118526 9.58452 0 9.29837 0 9V6.75ZM5.625 6.75C5.625 6.45163 5.74353 6.16548 5.9545 5.9545C6.16548 5.74353 6.45163 5.625 6.75 5.625H9C9.29837 5.625 9.58452 5.74353 9.7955 5.9545C10.0065 6.16548 10.125 6.45163 10.125 6.75V9C10.125 9.29837 10.0065 9.58452 9.7955 9.7955C9.58452 10.0065 9.29837 10.125 9 10.125H6.75C6.45163 10.125 6.16548 10.0065 5.9545 9.7955C5.74353 9.58452 5.625 9.29837 5.625 9V6.75ZM11.25 6.75C11.25 6.45163 11.3685 6.16548 11.5795 5.9545C11.7905 5.74353 12.0766 5.625 12.375 5.625H14.625C14.9234 5.625 15.2095 5.74353 15.4205 5.9545C15.6315 6.16548 15.75 6.45163 15.75 6.75V9C15.75 9.29837 15.6315 9.58452 15.4205 9.7955C15.2095 10.0065 14.9234 10.125 14.625 10.125H12.375C12.0766 10.125 11.7905 10.0065 11.5795 9.7955C11.3685 9.58452 11.25 9.29837 11.25 9V6.75ZM0 12.375C0 12.0766 0.118526 11.7905 0.329505 11.5795C0.540483 11.3685 0.826631 11.25 1.125 11.25H3.375C3.67337 11.25 3.95952 11.3685 4.1705 11.5795C4.38147 11.7905 4.5 12.0766 4.5 12.375V14.625C4.5 14.9234 4.38147 15.2095 4.1705 15.4205C3.95952 15.6315 3.67337 15.75 3.375 15.75H1.125C0.826631 15.75 0.540483 15.6315 0.329505 15.4205C0.118526 15.2095 0 14.9234 0 14.625V12.375ZM5.625 12.375C5.625 12.0766 5.74353 11.7905 5.9545 11.5795C6.16548 11.3685 6.45163 11.25 6.75 11.25H9C9.29837 11.25 9.58452 11.3685 9.7955 11.5795C10.0065 11.7905 10.125 12.0766 10.125 12.375V14.625C10.125 14.9234 10.0065 15.2095 9.7955 15.4205C9.58452 15.6315 9.29837 15.75 9 15.75H6.75C6.45163 15.75 6.16548 15.6315 5.9545 15.4205C5.74353 15.2095 5.625 14.9234 5.625 14.625V12.375ZM11.25 12.375C11.25 12.0766 11.3685 11.7905 11.5795 11.5795C11.7905 11.3685 12.0766 11.25 12.375 11.25H14.625C14.9234 11.25 15.2095 11.3685 15.4205 11.5795C15.6315 11.7905 15.75 12.0766 15.75 12.375V14.625C15.75 14.9234 15.6315 15.2095 15.4205 15.4205C15.2095 15.6315 14.9234 15.75 14.625 15.75H12.375C12.0766 15.75 11.7905 15.6315 11.5795 15.4205C11.3685 15.2095 11.25 14.9234 11.25 14.625V12.375Z" fill="currentColor"/>
</svg>
