<svg width="48" height="48" viewBox="0 0 48 48" fill="none" xmlns="http://www.w3.org/2000/svg">
<path d="M43.17 8.5125L24.42 3.0675C24.141 2.98456 23.844 2.98456 23.565 3.0675L4.815 8.52C4.50745 8.6132 4.23796 8.8027 4.04623 9.06059C3.85449 9.31849 3.75065 9.63114 3.75 9.9525V26.325C3.75 40.575 22.8225 45.5025 23.64 45.705C23.7577 45.7345 23.8786 45.7496 24 45.75C24.1319 45.752 24.2633 45.7343 24.39 45.6975C25.56 45.405 44.25 40.44 44.25 26.325V9.9525C44.25 9.62795 44.1447 9.31215 43.95 9.0525C43.7553 8.79286 43.4816 8.60338 43.17 8.5125ZM41.25 26.325C41.25 37.275 26.52 42 24 42.6975C21.48 42 6.75 37.2975 6.75 26.325V11.085L24 6.06L41.25 11.085V26.325Z" fill="url(#paint0_linear_3329_34917)"/>
<path d="M22.5003 15V16.5675C21.3934 16.7613 20.399 17.3623 19.7127 18.2523C19.0265 19.1422 18.6981 20.2567 18.7922 21.3766C18.8862 22.4964 19.3958 23.5406 20.2208 24.3037C21.0459 25.0667 22.1265 25.4935 23.2503 25.5H25.5003C25.8981 25.5 26.2797 25.658 26.561 25.9393C26.8423 26.2206 27.0003 26.6022 27.0003 27C27.0003 27.3978 26.8423 27.7794 26.561 28.0607C26.2797 28.342 25.8981 28.5 25.5003 28.5H21.0003C20.6025 28.5 20.221 28.658 19.9397 28.9393C19.6583 29.2206 19.5003 29.6022 19.5003 30C19.5003 30.3978 19.6583 30.7794 19.9397 31.0607C20.221 31.342 20.6025 31.5 21.0003 31.5H22.5003V33C22.5003 33.3978 22.6583 33.7794 22.9397 34.0607C23.221 34.342 23.6025 34.5 24.0003 34.5C24.3981 34.5 24.7797 34.342 25.061 34.0607C25.3423 33.7794 25.5003 33.3978 25.5003 33V31.5C26.6938 31.5 27.8384 31.0259 28.6823 30.182C29.5262 29.3381 30.0003 28.1935 30.0003 27C30.0003 25.8065 29.5262 24.6619 28.6823 23.818C27.8384 22.9741 26.6938 22.5 25.5003 22.5H23.2503C22.8525 22.5 22.471 22.342 22.1897 22.0607C21.9083 21.7794 21.7503 21.3978 21.7503 21C21.7503 20.6022 21.9083 20.2206 22.1897 19.9393C22.471 19.658 22.8525 19.5 23.2503 19.5H27.7503C28.1481 19.5 28.5297 19.342 28.811 19.0607C29.0923 18.7794 29.2503 18.3978 29.2503 18C29.2503 17.6022 29.0923 17.2206 28.811 16.9393C28.5297 16.658 28.1481 16.5 27.7503 16.5H25.5003V15C25.5003 14.6022 25.3423 14.2206 25.061 13.9393C24.7797 13.658 24.3981 13.5 24.0003 13.5C23.6025 13.5 23.221 13.658 22.9397 13.9393C22.6583 14.2206 22.5003 14.6022 22.5003 15Z" fill="#EC5851"/>
<defs>
<linearGradient id="paint0_linear_3329_34917" x1="3.75" y1="7.20971" x2="46.542" y2="8.8729" gradientUnits="userSpaceOnUse">
<stop stop-color="#5FD8FF"/>
<stop offset="0.644117" stop-color="#9969FF"/>
<stop offset="1" stop-color="#704FE5"/>
</linearGradient>
</defs>
</svg>
