<svg width="24" height="24" viewBox="0 0 24 24" fill="none" xmlns="http://www.w3.org/2000/svg">
<path fill-rule="evenodd" clip-rule="evenodd" d="M15.564 6.60001H19.8C19.9592 6.60001 20.1118 6.66322 20.2243 6.77574C20.3368 6.88826 20.4 7.04088 20.4 7.20001C20.4 7.35914 20.3368 7.51175 20.2243 7.62427C20.1118 7.73679 19.9592 7.80001 19.8 7.80001H18.3V19.8C18.3 19.9591 18.2368 20.1117 18.1243 20.2243C18.0118 20.3368 17.8592 20.4 17.7 20.4H7.50005C7.16405 20.4 6.90005 20.136 6.90005 19.8V7.80001H5.40005C5.24092 7.80001 5.08831 7.73679 4.97578 7.62427C4.86326 7.51175 4.80005 7.35914 4.80005 7.20001C4.80005 7.04088 4.86326 6.88826 4.97578 6.77574C5.08831 6.66322 5.24092 6.60001 5.40005 6.60001H9.63605C9.67749 5.88385 9.9278 5.19551 10.356 4.62001C10.872 3.98401 11.64 3.60001 12.6 3.60001C13.56 3.60001 14.328 3.98401 14.844 4.62001C15.2717 5.19584 15.5219 5.88399 15.564 6.60001ZM12.6 4.80001C11.988 4.80001 11.568 5.02801 11.292 5.37601C11.064 5.66401 10.92 6.09601 10.86 6.60001H14.34C14.268 6.09601 14.148 5.66401 13.908 5.37601C13.62 5.02801 13.212 4.80001 12.6 4.80001ZM8.10005 19.2H17.1V7.80001H8.10005V19.2ZM10.4358 9.47574C10.5483 9.36322 10.7009 9.30001 10.86 9.30001C11.0192 9.30001 11.1718 9.36322 11.2843 9.47574C11.3968 9.58826 11.46 9.74088 11.46 9.90001V17.1C11.46 17.2591 11.3968 17.4117 11.2843 17.5243C11.1718 17.6368 11.0192 17.7 10.86 17.7C10.7009 17.7 10.5483 17.6368 10.4358 17.5243C10.3232 17.4117 10.26 17.2591 10.26 17.1V9.90001C10.26 9.74088 10.3232 9.58826 10.4358 9.47574ZM13.9158 9.47574C14.0283 9.36322 14.1809 9.30001 14.34 9.30001C14.4992 9.30001 14.6518 9.36322 14.7643 9.47574C14.8768 9.58826 14.94 9.74088 14.94 9.90001V17.1C14.94 17.2591 14.8768 17.4117 14.7643 17.5243C14.6518 17.6368 14.4992 17.7 14.34 17.7C14.1809 17.7 14.0283 17.6368 13.9158 17.5243C13.8032 17.4117 13.74 17.2591 13.74 17.1V9.90001C13.74 9.74088 13.8032 9.58826 13.9158 9.47574Z" fill="black"/>
</svg>
